<svg xmlns="http://www.w3.org/2000/svg" viewBox="0 0 512 512">
  <defs>
    <radialGradient id="bodyGrad" cx="50%" cy="45%" r="50%">
      <stop offset="0%" stop-color="#D4A574"/>
      <stop offset="100%" stop-color="#A0724A"/>
    </radialGradient>
    <radialGradient id="bellyGrad" cx="50%" cy="50%" r="50%">
      <stop offset="0%" stop-color="#F0D8B0"/>
      <stop offset="100%" stop-color="#D4B896"/>
    </radialGradient>
  </defs>
  <!-- 背景圆 -->
  <circle cx="256" cy="256" r="240" fill="url(#bodyGrad)" stroke="#8D6E4F" stroke-width="4"/>
  <!-- 耳朵 -->
  <ellipse cx="140" cy="140" rx="55" ry="45" fill="#A0724A" stroke="#8D6E4F" stroke-width="3"/>
  <ellipse cx="372" cy="140" rx="55" ry="45" fill="#A0724A" stroke="#8D6E4F" stroke-width="3"/>
  <ellipse cx="140" cy="140" rx="35" ry="28" fill="#D4A574"/>
  <ellipse cx="372" cy="140" rx="35" ry="28" fill="#D4A574"/>
  <!-- 眼睛 -->
  <ellipse cx="200" cy="220" rx="22" ry="24" fill="#3E2723"/>
  <ellipse cx="312" cy="220" rx="22" ry="24" fill="#3E2723"/>
  <circle cx="206" cy="214" r="8" fill="white"/>
  <circle cx="318" cy="214" r="8" fill="white"/>
  <!-- 鼻子 -->
  <ellipse cx="256" cy="280" rx="22" ry="16" fill="#5D4037"/>
  <ellipse cx="250" cy="276" rx="6" ry="4" fill="#8D6E4F" opacity="0.6"/>
  <!-- 嘴巴 -->
  <path d="M244 298 Q256 312 268 298" fill="none" stroke="#5D4037" stroke-width="3" stroke-linecap="round"/>
  <!-- 腮红 -->
  <ellipse cx="170" cy="270" rx="24" ry="16" fill="#FFB7C5" opacity="0.6"/>
  <ellipse cx="342" cy="270" rx="24" ry="16" fill="#FFB7C5" opacity="0.6"/>
  <!-- 肚皮 -->
  <ellipse cx="256" cy="370" rx="100" ry="70" fill="url(#bellyGrad)"/>
</svg>
